<?xml version="1.0" standalone="no"?>
<!DOCTYPE svg PUBLIC "-//W3C//DTD SVG 20010904//EN"
 "http://www.w3.org/TR/2001/REC-SVG-20010904/DTD/svg10.dtd">
<svg version="1.0" xmlns="http://www.w3.org/2000/svg"
width="30"
 height="30"
class="icon" viewBox="0 0 64.000000 64.000000"
 preserveAspectRatio="xMidYMid meet">

<g transform="translate(0.000000,64.000000) scale(0.100000,-0.100000)"
fill="#000000" stroke="none">
<path d="M237 591 c-21 -28 -37 -63 -38 -79 0 -23 -2 -22 -13 13 -11 39 -13
40 -70 48 -62 9 -86 -1 -86 -33 0 -26 25 -42 61 -38 31 3 34 0 44 -36 6 -22
17 -42 23 -44 17 -5 -13 90 -33 104 -22 16 -19 24 10 24 20 0 26 -7 35 -40
l11 -40 204 0 c157 0 205 -3 205 -12 0 -7 -7 -64 -17 -125 l-16 -113 -144 0
c-158 0 -167 -4 -141 -57 l13 -28 125 -3 c69 -1 129 -7 133 -11 5 -5 -1 -9
-14 -9 -40 -1 -89 -14 -89 -23 0 -5 6 -9 14 -9 9 0 12 -7 9 -19 -6 -23 29 -61
57 -61 11 0 29 9 41 21 17 17 19 28 14 62 -4 23 -9 45 -12 49 -2 5 -63 8 -134
8 l-129 0 -10 26 c-6 14 -10 27 -10 30 0 2 62 4 139 4 99 0 141 4 148 12 5 7
18 69 28 137 18 115 18 124 2 133 -13 7 -17 23 -17 67 0 64 -16 89 -47 75 -16
-7 -15 -8 5 -11 17 -3 22 -11 22 -34 0 -29 -1 -29 -57 -29 -32 0 -75 3 -95 6
-32 6 -38 11 -38 30 0 23 4 24 60 24 36 0 60 4 60 11 0 7 -29 10 -82 9 -46 -1
-95 1 -109 5 -23 6 -30 1 -62 -44z m88 17 c14 -6 25 -19 25 -30 0 -15 -8 -18
-50 -18 -54 0 -58 4 -34 38 17 25 23 26 59 10z m-230 -68 c0 -8 -10 -16 -22
-18 -18 -3 -23 2 -23 18 0 16 5 21 23 18 12 -2 22 -10 22 -18z m313 -22 l3
-28 -95 0 c-94 0 -96 1 -96 23 0 13 3 27 7 31 4 4 46 5 93 4 85 -3 85 -3 88
-30z m152 -8 c0 -18 -7 -20 -65 -20 -58 0 -65 2 -65 20 0 18 7 20 65 20 58 0
65 -2 65 -20z m-16 -423 c36 -26 -4 -84 -41 -61 -24 15 -27 38 -8 58 20 19 26
20 49 3z"/>
<path d="M500 61 c0 -27 19 -36 37 -18 18 18 9 37 -18 37 -12 0 -19 -7 -19
-19z"/>
<path d="M212 368 c12 -40 24 -84 28 -98 6 -25 6 -25 148 -28 140 -3 142 -2
147 20 7 31 25 150 25 166 0 9 -43 12 -184 12 l-184 0 20 -72z m58 27 c0 -29
-34 -36 -44 -9 -10 27 -7 34 19 34 20 0 25 -5 25 -25z m73 -43 c36 -3 37 -3
37 32 0 20 5 36 10 36 6 0 10 -16 10 -36 0 -35 1 -35 38 -32 34 3 37 6 40 36
2 17 7 32 12 32 5 0 6 -16 3 -35 -5 -32 -3 -35 18 -36 l24 0 -22 -9 c-15 -6
-23 -18 -23 -32 0 -13 -5 -30 -10 -38 -7 -11 -10 -3 -10 28 0 43 0 43 -32 40
-30 -3 -33 -6 -36 -40 -4 -51 -22 -48 -22 3 0 39 -1 40 -32 37 -31 -3 -33 -6
-37 -43 l-3 -40 -12 40 c-8 28 -18 41 -36 46 l-25 7 28 1 c24 1 27 5 28 39 l2
37 6 -35 c5 -32 9 -35 44 -38z m17 43 c0 -18 -5 -25 -20 -25 -15 0 -20 7 -20
25 0 18 5 25 20 25 15 0 20 -7 20 -25z m100 0 c0 -18 -5 -25 -20 -25 -15 0
-20 7 -20 25 0 18 5 25 20 25 15 0 20 -7 20 -25z m78 3 c-4 -27 -28 -36 -28
-10 0 20 8 32 22 32 5 0 8 -10 6 -22z m-260 -111 c2 -15 -1 -27 -7 -27 -6 0
-11 3 -11 8 0 4 -3 18 -7 31 -4 18 -2 23 8 19 8 -2 15 -17 17 -31z m82 3 c0
-20 -5 -30 -15 -30 -10 0 -15 10 -15 30 0 20 5 30 15 30 10 0 15 -10 15 -30z
m90 0 c0 -20 -5 -30 -15 -30 -10 0 -15 10 -15 30 0 20 5 30 15 30 10 0 15 -10
15 -30z m66 -28 c-12 -11 -17 7 -9 34 l8 29 3 -28 c2 -16 1 -31 -2 -35z"/>
<path d="M167 363 c3 -16 22 -77 40 -138 37 -119 37 -118 27 -157 -4 -19 0
-32 15 -47 37 -37 91 -19 94 32 2 23 6 27 35 27 49 0 38 17 -15 23 -75 9 -93
13 -102 23 -5 5 -26 66 -46 137 -21 70 -42 127 -47 127 -4 0 -5 -12 -1 -27z
m147 -279 c19 -18 19 -20 6 -45 -6 -10 -19 -19 -28 -19 -39 0 -57 50 -24 69
23 14 28 14 46 -5z"/>
<path d="M264 69 c-8 -14 21 -43 35 -35 19 12 13 46 -8 46 -11 0 -23 -5 -27
-11z"/>
</g>
</svg>
