<?xml version="1.0" standalone="no"?>
<!DOCTYPE svg PUBLIC "-//W3C//DTD SVG 20010904//EN"
 "http://www.w3.org/TR/2001/REC-SVG-20010904/DTD/svg10.dtd">
<svg version="1.0" xmlns="http://www.w3.org/2000/svg"
 width="64.000000pt" height="64.000000pt" viewBox="0 0 64.000000 64.000000"
 preserveAspectRatio="xMidYMid meet">

<g transform="translate(0.000000,64.000000) scale(0.100000,-0.100000)"
fill="#000000" stroke="none">
<path d="M266 598 c-24 -34 -20 -38 34 -38 42 0 50 3 50 18 0 17 -36 42 -60
42 -5 0 -16 -10 -24 -22z"/>
<path d="M438 613 c-63 -4 -68 -5 -68 -27 0 -19 7 -24 38 -30 20 -3 63 -6 95
-6 57 0 57 0 57 30 0 19 -5 30 -14 30 -8 0 -20 1 -28 3 -7 2 -43 1 -80 0z"/>
<path d="M50 540 c0 -16 5 -21 23 -18 12 2 22 10 22 18 0 8 -10 16 -22 18 -18
3 -23 -2 -23 -18z"/>
<path d="M110 540 c0 -5 5 -10 11 -10 13 0 39 -61 41 -97 1 -16 5 -33 9 -38 4
-6 24 -66 44 -135 39 -131 44 -142 72 -147 101 -17 148 -20 181 -11 20 6 48
10 61 10 13 0 19 4 14 9 -4 4 -64 10 -133 11 l-125 3 -13 28 c-26 53 -17 57
141 57 l144 0 16 113 c10 61 17 118 17 125 0 9 -48 12 -205 12 l-204 0 -11 40
c-9 33 -15 40 -35 40 -14 0 -25 -4 -25 -10z m450 -112 c0 -16 -18 -135 -25
-166 -5 -22 -7 -23 -147 -20 -142 3 -142 3 -148 28 -4 14 -16 58 -28 98 l-20
72 184 0 c141 0 184 -3 184 -12z"/>
<path d="M220 411 c0 -23 14 -41 31 -41 14 0 19 7 19 25 0 20 -5 25 -25 25
-14 0 -25 -4 -25 -9z"/>
<path d="M291 388 c-1 -32 -5 -37 -28 -41 l-28 -4 27 -2 c23 -1 27 -7 34 -43
l8 -43 6 40 c5 36 8 40 38 43 31 3 32 2 32 -37 0 -51 18 -54 22 -3 3 34 6 37
36 40 32 3 32 3 32 -40 0 -31 3 -39 10 -28 5 8 10 25 10 38 0 14 8 26 23 32
l22 9 -24 0 c-21 1 -23 4 -18 36 3 19 2 35 -3 35 -5 0 -10 -15 -12 -32 -3 -30
-6 -33 -40 -36 -37 -3 -38 -3 -38 32 0 20 -4 36 -10 36 -5 0 -10 -16 -10 -36
0 -35 -1 -35 -37 -32 -35 3 -39 6 -44 38 l-6 35 -2 -37z"/>
<path d="M320 395 c0 -18 5 -25 20 -25 15 0 20 7 20 25 0 18 -5 25 -20 25 -15
0 -20 -7 -20 -25z"/>
<path d="M420 395 c0 -18 5 -25 20 -25 15 0 20 7 20 25 0 18 -5 25 -20 25 -15
0 -20 -7 -20 -25z"/>
<path d="M517 413 c-4 -3 -7 -15 -7 -25 0 -26 24 -17 28 10 3 21 -8 29 -21 15z"/>
<path d="M253 299 c4 -13 7 -27 7 -31 0 -5 5 -8 11 -8 15 0 6 53 -10 58 -10 4
-12 -1 -8 -19z"/>
<path d="M330 290 c0 -20 5 -30 15 -30 10 0 15 10 15 30 0 20 -5 30 -15 30
-10 0 -15 -10 -15 -30z"/>
<path d="M420 290 c0 -20 5 -30 15 -30 10 0 15 10 15 30 0 20 -5 30 -15 30
-10 0 -15 -10 -15 -30z"/>
<path d="M507 296 c-4 -15 -6 -31 -2 -34 10 -10 16 6 13 35 l-3 28 -8 -29z"/>
<path d="M233 544 c-7 -3 -13 -17 -13 -30 0 -24 1 -24 96 -24 l95 0 -3 28 c-3
27 -4 27 -83 29 -44 1 -86 -1 -92 -3z"/>
<path d="M430 510 c0 -18 7 -20 65 -20 58 0 65 2 65 20 0 18 -7 20 -65 20 -58
0 -65 -2 -65 -20z"/>
<path d="M268 89 c-33 -19 -15 -69 24 -69 15 0 38 27 38 44 0 7 -31 36 -38 36
-4 0 -15 -5 -24 -11z m42 -28 c0 -27 -19 -36 -37 -18 -18 18 -9 37 18 37 12 0
19 -7 19 -19z"/>
<path d="M495 84 c-19 -20 -16 -43 8 -58 37 -23 77 35 41 61 -23 17 -29 16
-49 -3z m51 -15 c3 -6 -1 -18 -9 -27 -13 -12 -19 -13 -31 -3 -8 7 -12 19 -9
27 6 17 39 19 49 3z"/>
</g>
</svg>
